<?xml version="1.0" encoding="utf-8"?>
<!-- Generator: Adobe Illustrator 23.0.6, SVG Export Plug-In . SVG Version: 6.00 Build 0)  -->
<svg version="1.1" id="Слой_1" xmlns="http://www.w3.org/2000/svg" xmlns:xlink="http://www.w3.org/1999/xlink" x="0px" y="0px"
	 viewBox="0 0 42 42" style="enable-background:new 0 0 42 42;" xml:space="preserve">
<style type="text/css">
	.st0{fill:#0E276B;}
	.st1{clip-path:url(#SVGID_2_);}
	.st2{fill:#FFFFFF;}
	.st3{fill:#CF1C31;}
	.st4{fill:#3A3870;}
</style>
<path class="st0" d="M36.89,42H5.11C2.29,42,0,39.71,0,36.89V5.11C0,2.29,2.29,0,5.11,0h31.78C39.71,0,42,2.29,42,5.11v31.78
	C42,39.71,39.71,42,36.89,42z"/>
<path class="st2" d="M20.48,17.52v7.84h5.88v2.22c-1.04,0.56-2.34,0.85-3.88,0.85c-2.13,0-3.82-0.67-5.18-2.06
	c-1.36-1.39-2.03-3.13-2.03-5.32c0-2.12,0.64-3.84,1.96-5.28c1.3-1.41,2.86-2.1,4.78-2.1c2.33,0,4.56,0.88,6.63,2.61l0.69,0.57
	l6-7.21l-0.66-0.57c-3.51-3.03-7.78-4.57-12.7-4.57c-4.83,0-8.9,1.59-12.12,4.73C6.63,12.39,5,16.32,5,20.93
	c0,4.75,1.64,8.72,4.88,11.8c3.23,3.06,7.35,4.62,12.26,4.62c5.11,0,9.66-1.62,13.53-4.81L36,32.26V17.52H20.48z"/>
</svg>
